<svg width="283" height="298" viewBox="0 0 283 298" fill="none" xmlns="http://www.w3.org/2000/svg">
<g clip-path="url(#clip0_9_46)">
<g clip-path="url(#clip1_9_46)">
<path d="M190 33.0833C257.657 33.0833 312.5 86.9939 312.5 153.5C312.5 220.006 257.657 273.917 190 273.917C122.343 273.917 67.5 220.006 67.5 153.5C67.5 86.9939 122.343 33.0833 190 33.0833ZM190 81.25C187 81.2504 184.104 82.3332 181.861 84.2931C179.619 86.253 178.187 88.9536 177.836 91.8828L177.75 93.2917V105.333H165.5C157.539 105.314 149.883 108.343 144.155 113.779C138.428 119.214 135.078 126.628 134.817 134.45C134.556 142.271 137.403 149.885 142.756 155.678C148.109 161.471 155.546 164.987 163.491 165.481L165.5 165.542H177.75V177.583H153.25C150.128 177.587 147.125 178.762 144.854 180.869C142.584 182.976 141.218 185.855 141.035 188.919C140.852 191.983 141.866 195 143.87 197.354C145.874 199.707 148.716 201.22 151.817 201.582L153.25 201.667H177.75V213.708C177.753 216.778 178.949 219.73 181.092 221.961C183.236 224.193 186.165 225.536 189.282 225.716C192.399 225.896 195.468 224.899 197.862 222.929C200.257 220.959 201.795 218.165 202.164 215.117L202.25 213.708V201.667H214.5C222.461 201.686 230.117 198.657 235.845 193.221C241.572 187.786 244.922 180.372 245.183 172.55C245.444 164.729 242.597 157.115 237.244 151.322C231.891 145.529 224.454 142.013 216.509 141.519L214.5 141.458H202.25V129.417H226.75C229.872 129.413 232.875 128.238 235.146 126.131C237.416 124.024 238.782 121.145 238.965 118.081C239.148 115.017 238.134 112 236.13 109.646C234.126 107.293 231.284 105.78 228.183 105.418L226.75 105.333H202.25V93.2917C202.25 90.098 200.959 87.0352 198.662 84.7769C196.365 82.5187 193.249 81.25 190 81.25ZM214.5 165.542C216.124 165.542 217.682 166.176 218.831 167.305C219.98 168.434 220.625 169.966 220.625 171.563C220.625 173.159 219.98 174.691 218.831 175.82C217.682 176.949 216.124 177.583 214.5 177.583H202.25V165.542H214.5ZM177.75 129.417V141.458H165.5C163.876 141.458 162.318 140.824 161.169 139.695C160.02 138.566 159.375 137.034 159.375 135.438C159.375 133.841 160.02 132.309 161.169 131.18C162.318 130.051 163.876 129.417 165.5 129.417H177.75Z" fill="#438249"/>
</g>
</g>
<defs>
<clipPath id="clip0_9_46">
<rect width="283" height="298" fill="white"/>
</clipPath>
<clipPath id="clip1_9_46">
<rect width="294" height="289" fill="white" transform="translate(43 9)"/>
</clipPath>
</defs>
</svg>
