<svg width="127" height="113" viewBox="0 0 127 113" fill="none" xmlns="http://www.w3.org/2000/svg">
<g clip-path="url(#clip0_12_41)">
<path d="M0.860056 5.0541C2.31526 1.96426 5.40207 0 8.8196 0H104.07C107.487 0 110.574 1.96426 112.029 5.0541C113.484 8.14395 113.043 11.7855 110.883 14.434L87.4009 43.1695C69.7179 46.8111 56.4446 62.459 56.4446 81.2188C56.4446 87.266 57.8337 93.0043 60.3031 98.1025C59.9503 97.926 59.5976 97.7053 59.2668 97.4625L45.1557 86.8688C43.3698 85.5445 42.3335 83.4479 42.3335 81.2188V63.7611L1.98453 14.4119C-0.15418 11.7855 -0.617201 8.12187 0.860056 5.0541ZM63.5002 81.2188C63.5002 72.7898 66.8452 64.7062 72.7995 58.746C78.7538 52.7859 86.8295 49.4375 95.2502 49.4375C103.671 49.4375 111.747 52.7859 117.701 58.746C123.655 64.7062 127 72.7898 127 81.2188C127 89.6477 123.655 97.7313 117.701 103.691C111.747 109.652 103.671 113 95.2502 113C86.8295 113 78.7538 109.652 72.7995 103.691C66.8452 97.7313 63.5002 89.6477 63.5002 81.2188ZM90.1349 74.0238C90.2672 73.8252 90.5318 73.5604 91.0609 73.2734C92.1854 72.6775 93.817 72.3686 95.184 72.3906C96.992 72.4127 98.9543 72.7879 101.005 73.2955C102.901 73.759 104.819 72.6113 105.282 70.7133C105.745 68.8152 104.599 66.8951 102.703 66.4316C101.468 66.1227 100.145 65.8357 98.7559 65.615V63.5625C98.7559 61.6203 97.1684 60.0312 95.2281 60.0312C93.2878 60.0312 91.7003 61.6203 91.7003 63.5625V65.6592C90.3554 65.924 88.9884 66.3654 87.7316 67.0496C85.1298 68.44 82.6604 71.1105 82.925 75.2598C83.1455 78.791 85.5047 80.8436 87.6875 82.0354C89.6278 83.0727 92.0311 83.7568 93.9934 84.3086L94.3903 84.4189C96.6613 85.059 98.337 85.5666 99.5055 86.2508C100.498 86.8467 100.542 87.1777 100.542 87.4867C100.564 88.0164 100.432 88.3033 100.321 88.4799C100.189 88.7006 99.9245 88.9654 99.4394 89.2082C98.4031 89.76 96.8377 90.0469 95.3604 90.0027C93.2658 89.9365 91.2814 89.3186 88.7679 88.502C88.3489 88.3695 87.93 88.2371 87.489 88.1047C85.637 87.5309 83.6526 88.5682 83.0793 90.4221C82.5061 92.276 83.5423 94.2623 85.3944 94.8361C85.7472 94.9465 86.122 95.0568 86.4969 95.1893C88.0403 95.6969 89.8262 96.2486 91.7224 96.6459V99.1619C91.7224 101.104 93.3099 102.693 95.2502 102.693C97.1904 102.693 98.7779 101.104 98.7779 99.1619V96.8225C100.145 96.5797 101.534 96.1383 102.813 95.4541C105.481 94.0195 107.73 91.327 107.597 87.3102C107.487 83.7348 105.326 81.5057 103.077 80.1814C101.005 78.9455 98.4031 78.2172 96.3526 77.6434H96.3085C94.0154 77.0033 92.2736 76.4957 91.0389 75.8336C89.9805 75.2598 89.9805 74.9508 89.9805 74.8404V74.8184C89.9585 74.399 90.0467 74.1783 90.1569 74.0238H90.1349Z" fill="black"/>
</g>
<defs>
<clipPath id="clip0_12_41">
<rect width="127" height="113" fill="white"/>
</clipPath>
</defs>
</svg>
