<svg width="234" height="43" viewBox="0 0 234 43" fill="none" xmlns="http://www.w3.org/2000/svg">
<path d="M21.5 30.9421L32.5725 37.625L29.6342 25.0296L39.4167 16.555L26.5346 15.4621L21.5 3.58334L16.4654 15.4621L3.58333 16.555L13.3658 25.0296L10.4275 37.625L21.5 30.9421Z" fill="#FFF500"/>
<path d="M70.5 30.9421L81.5725 37.625L78.6342 25.0296L88.4167 16.555L75.5346 15.4621L70.5 3.58334L65.4654 15.4621L52.5833 16.555L62.3658 25.0296L59.4275 37.625L70.5 30.9421Z" fill="#FFF500"/>
<path d="M118.5 30.9421L129.573 37.625L126.634 25.0296L136.417 16.555L123.535 15.4621L118.5 3.58334L113.465 15.4621L100.583 16.555L110.366 25.0296L107.428 37.625L118.5 30.9421Z" fill="#FFF500"/>
<path d="M165.5 30.9421L176.572 37.625L173.634 25.0296L183.417 16.555L170.535 15.4621L165.5 3.58334L160.465 15.4621L147.583 16.555L157.366 25.0296L154.427 37.625L165.5 30.9421Z" fill="#FFF500"/>
<path d="M212.5 30.9421L223.572 37.625L220.634 25.0296L230.417 16.555L217.535 15.4621L212.5 3.58334L207.465 15.4621L194.583 16.555L204.366 25.0296L201.427 37.625L212.5 30.9421Z" fill="white"/>
</svg>
