<svg width="142" height="95" viewBox="0 0 142 95" fill="none" xmlns="http://www.w3.org/2000/svg">
<path d="M15.7778 0C7.07535 0 0 7.10026 0 15.8333V79.1667C0 87.8997 7.07535 95 15.7778 95H126.222C134.925 95 142 87.8997 142 79.1667V15.8333C142 7.10026 134.925 0 126.222 0H15.7778ZM67.0556 31.6667H122.278C124.447 31.6667 126.222 33.4479 126.222 35.625C126.222 37.8021 124.447 39.5833 122.278 39.5833H67.0556C64.8861 39.5833 63.1111 37.8021 63.1111 35.625C63.1111 33.4479 64.8861 31.6667 67.0556 31.6667ZM63.1111 59.375C63.1111 57.1979 64.8861 55.4167 67.0556 55.4167H122.278C124.447 55.4167 126.222 57.1979 126.222 59.375C126.222 61.5521 124.447 63.3333 122.278 63.3333H67.0556C64.8861 63.3333 63.1111 61.5521 63.1111 59.375ZM40.4306 21.7708V25.2096C42.2795 25.5065 44.0299 25.9271 45.6323 26.3724C48.2701 27.0651 49.8233 29.7865 49.133 32.4336C48.4427 35.0807 45.7309 36.6393 43.0931 35.9466C40.3813 35.2292 37.7681 34.7096 35.4014 34.6602C33.4538 34.6354 31.4569 35.1055 30.101 35.8971C28.9177 36.5898 28.5726 37.2825 28.5726 38.1979C28.5726 38.6432 28.5972 39.0638 29.8792 39.8555C31.4323 40.7956 33.7003 41.513 36.8559 42.4531L37.0285 42.5026C39.7896 43.3437 43.3396 44.4076 46.1747 46.2135C49.3549 48.2174 52.1653 51.4831 52.2392 56.5052C52.3132 61.6758 49.6507 65.4362 46.1253 67.638C44.3503 68.7513 42.3781 69.444 40.4059 69.8646V73.2292C40.4059 75.9505 38.1872 78.1771 35.4753 78.1771C32.7635 78.1771 30.5448 75.9505 30.5448 73.2292V69.6172C28.0056 69.0729 25.6142 68.2565 23.5927 67.5391C23.075 67.3659 22.5819 67.1927 22.0889 67.0195C19.5003 66.1536 18.1198 63.3581 18.9826 60.7604C19.8455 58.1628 22.6313 56.7773 25.2198 57.6432C25.8361 57.8411 26.4278 58.0638 26.9948 58.237C30.3476 59.375 32.9115 60.2409 35.6479 60.3398C37.7681 60.4141 39.7156 59.944 40.9236 59.1771C41.9344 58.5586 42.4028 57.8164 42.3781 56.5794C42.3781 55.862 42.1809 55.3424 40.9236 54.5508C39.3705 53.5612 37.1271 52.8437 34.0208 51.9036L33.6017 51.7799C30.9146 50.9635 27.5372 49.9492 24.8253 48.3164C21.6944 46.4115 18.7608 43.2448 18.7361 38.2474C18.7115 33.0273 21.6451 29.4154 25.0965 27.3867C26.7976 26.3724 28.6712 25.7044 30.5694 25.2839V21.7708C30.5694 19.0495 32.7882 16.8229 35.5 16.8229C38.2118 16.8229 40.4306 19.0495 40.4306 21.7708Z" fill="black"/>
</svg>
