<svg width="100" height="100" viewBox="0 0 100 100" fill="none" xmlns="http://www.w3.org/2000/svg">
<path d="M30 30H70M30 50H60M55 75L30 90V75H20C16.0218 75 12.2064 73.4196 9.3934 70.6066C6.58035 67.7936 5 63.9782 5 60V20C5 16.0218 6.58035 12.2064 9.3934 9.3934C12.2064 6.58035 16.0218 5 20 5H80C83.9782 5 87.7936 6.58035 90.6066 9.3934C93.4196 12.2064 95 16.0218 95 20V37.5M95 60H82.5C80.5109 60 78.6032 60.7902 77.1967 62.1967C75.7902 63.6032 75 65.5109 75 67.5C75 69.4891 75.7902 71.3968 77.1967 72.8033C78.6032 74.2098 80.5109 75 82.5 75H87.5C89.4891 75 91.3968 75.7902 92.8033 77.1967C94.2098 78.6032 95 80.5109 95 82.5C95 84.4891 94.2098 86.3968 92.8033 87.8033C91.3968 89.2098 89.4891 90 87.5 90H75M85 90V95M85 55V60" stroke="black" stroke-width="10" stroke-linecap="round" stroke-linejoin="round"/>
</svg>
